<svg width="268" height="100" viewBox="0 0 268 100" fill="none" xmlns="http://www.w3.org/2000/svg">
<path d="M0 0V80.3131L7.58341 84.6906L26.5409 95.6257L34.1243 100L41.7077 95.6257L60.6652 84.6906L68.2486 80.3152V0H0ZM60.6652 75.9378L34.1243 91.2504L7.58341 75.9378V7.57802H60.6652V75.9378Z" fill="#0B6B9F"/>
<path d="M41.781 42.7499V27.2439H26.4825C26.4825 30.3268 23.9131 32.8266 20.7453 32.8266V40.2722H26.4825V46.4716H57.0794V73.2731L34.1317 86.168L11.1841 73.2731V55.7781H26.4825V64.3943L34.1212 68.6877L41.781 64.3796V52.0858H11.1841V12.3611H57.0794V42.7499H41.781Z" fill="#27A4E8"/>
<path d="M115.401 21.9679C115.401 22.0447 115.401 22.1215 115.401 22.1983C115.401 27.9801 115.401 33.7619 115.401 39.5438C115.399 39.5821 115.399 39.6206 115.401 39.659C115.421 39.8043 115.357 39.8455 115.215 39.8455C112.188 39.8455 109.161 39.8455 106.135 39.8455C105.978 39.8455 105.945 39.7947 105.945 39.648C105.945 36.8284 105.945 34.0088 105.945 31.1892C105.945 30.9574 105.945 30.956 105.711 30.956H101.911C101.686 30.956 101.686 30.956 101.686 31.1851V44.4657C101.686 44.6865 101.686 44.6865 101.915 44.6865C104.458 44.6865 106.996 44.6646 109.545 44.6934C111.894 44.7222 113.648 45.8124 114.811 47.8394C115.223 48.5955 115.428 49.4472 115.404 50.3079C115.404 57.6476 115.404 64.9874 115.404 72.3271C115.411 72.4359 115.368 72.542 115.287 72.6151C113.374 74.4089 111.462 76.2041 109.55 78.0006C109.489 78.0425 109.42 78.0706 109.347 78.0829C109.301 78.089 109.255 78.089 109.209 78.0829H92.2516V60.1669H101.686V68.9055C101.686 69.14 101.686 69.14 101.916 69.14C103.196 69.14 104.476 69.14 105.761 69.14C105.923 69.14 105.96 69.0906 105.96 68.9357C105.96 63.8944 105.96 58.8531 105.96 53.8118C105.96 53.65 105.912 53.6116 105.756 53.613C103.191 53.613 100.626 53.6253 98.0658 53.613C96.4471 53.6288 94.8924 52.9821 93.7635 51.8233C92.9568 51.0336 92.4389 49.9962 92.2928 48.8775C92.2628 48.6327 92.2485 48.3863 92.2503 48.1397C92.2503 41.3595 92.2503 34.5793 92.2503 27.7991C92.2392 27.6855 92.2813 27.5731 92.3642 27.4946C94.273 25.6953 96.1786 23.8933 98.0809 22.0885C98.1165 22.0494 98.1491 22.0077 98.1784 21.9637L115.401 21.9679Z" fill="#0B6B9F"/>
<path d="M143.69 21.9679C143.69 22.0502 143.69 22.1325 143.69 22.2134V30.7161C143.69 30.9506 143.69 30.9506 143.459 30.9506H132.83C132.775 30.9506 132.719 30.9506 132.665 30.9506C132.528 30.9355 132.477 30.9876 132.477 31.1344C132.477 35.3254 132.477 39.5164 132.477 43.7074C132.477 43.7609 132.477 43.8157 132.485 43.887H141.595V52.819C141.524 52.819 141.45 52.8286 141.376 52.8286H132.724C132.477 52.8286 132.477 52.8286 132.477 53.0809V68.9014C132.477 69.1414 132.477 69.1414 132.718 69.1414H144.262V78.0679C144.209 78.0679 144.151 78.0775 144.093 78.0775C137.136 78.0775 130.178 78.0775 123.22 78.0775C123.065 78.0775 123.012 78.0281 123.03 77.8813C123.032 77.832 123.032 77.7826 123.03 77.7332V22.2477C123.03 22.1544 123.03 22.0612 123.03 21.9734L143.69 21.9679Z" fill="#0B6B9F"/>
<path d="M157.459 21.9734H174.7V40.1719H165.217V30.9753H160.907V69.1332H165.217V59.8186H174.7V72.5768L168.667 78.0953H151.502V27.6085L157.459 21.9734Z" fill="#0B6B9F"/>
<path d="M237.845 22.116V77.858C237.845 78.0849 237.845 78.0849 237.623 78.0849H237.159C234.02 78.0849 230.881 78.0849 227.741 78.0849H227.49C227.441 78.0872 227.391 78.0787 227.346 78.0596C227.285 78.022 227.245 77.958 227.239 77.8868C226.775 75.8517 226.307 73.8165 225.835 71.7813L223.747 62.7301C223.072 59.8044 222.398 56.8788 221.724 53.9531C221.695 53.8228 221.658 53.6953 221.625 53.5678H221.582V78.0802H212.431C212.094 78.0802 212.128 78.1337 212.128 77.773C212.128 59.2536 212.128 40.7346 212.128 22.2161C212.128 22.1338 212.128 22.0516 212.128 21.9693H223.037C223.035 21.9857 223.035 22.0022 223.037 22.0186L224.03 26.5168C224.552 28.8811 225.075 31.2454 225.598 33.6097C226.045 35.6312 226.493 37.6531 226.941 39.6754C227.074 40.2761 227.207 40.8773 227.338 41.4788L227.733 43.2713C227.879 43.935 228.025 44.5992 228.171 45.2639C228.238 45.5711 228.308 45.8769 228.378 46.1828H228.42V22.164C228.42 22.0982 228.42 22.0337 228.409 21.9679H237.834C237.844 22.0173 237.845 22.0666 237.845 22.116Z" fill="#27A4E8"/>
<path d="M195.751 21.9048H205.308C205.308 21.9912 205.299 22.079 205.299 22.1667C205.299 38.8265 205.299 55.4859 205.299 72.1447C205.312 72.2639 205.27 72.3826 205.185 72.467C203.276 74.28 201.368 76.0948 199.46 77.9115C199.388 77.9736 199.297 78.009 199.202 78.0116C193.676 78.0171 188.15 78.0171 182.624 78.0116C182.567 78.0116 182.509 78.0116 182.44 78.0006V22.1791C182.44 22.0872 182.44 21.9939 182.44 21.9048H191.998C191.998 21.9638 191.987 22.0241 191.987 22.0844C191.987 37.5904 191.987 53.0969 191.987 68.6038C191.987 68.7711 192.029 68.8164 192.197 68.8164C193.296 68.8081 194.405 68.8164 195.509 68.8164C195.769 68.8164 195.769 68.8164 195.769 68.5599C195.769 53.0813 195.769 37.6019 195.769 22.1215C195.759 22.0419 195.754 21.972 195.751 21.9048Z" fill="#27A4E8"/>
<path d="M251.652 21.9048L245.472 28.0761L245.456 27.9774V78.0843C248.593 78.0788 251.732 78.0788 254.873 78.0843V60.1669H258.227V78.0843C261.365 78.0788 264.504 78.0788 267.644 78.0843V21.9048H251.652ZM254.873 51.5271V30.5446H258.227V51.5271H254.873Z" fill="#27A4E8"/>
</svg>
